<svg width="459.325" height="459.325" xmlns="http://www.w3.org/2000/svg">

 <g>
  <title>background</title>
  <rect fill="none" id="canvas_background" height="402" width="582" y="-1" x="-1"/>
 </g>
 <g>
  <title>Layer 1</title>
  <g fill="white" id="svg_1">
   <path id="svg_2" d="m459.319,229.667999c0,22.201004 -17.992004,40.192993 -40.204987,40.192993l-149.264008,0l0,149.270996c0,22.207001 -17.998001,40.199005 -40.195999,40.193024c-11.100998,0 -21.149002,-4.492004 -28.416,-11.763c-7.276001,-7.281006 -11.774002,-17.324005 -11.768997,-28.419006l-0.005997,-149.287994l-149.282013,0c-11.094,0 -21.133999,-4.492004 -28.415999,-11.774017c-7.264,-7.263992 -11.759,-17.311996 -11.759,-28.412994c-0.006,-22.197006 17.986001,-40.192993 40.196,-40.192993l149.266994,0l0,-149.273006c0,-22.204 18.001999,-40.202 40.202011,-40.202c22.192001,0.006 40.177994,17.986 40.189987,40.187l0,149.287991l149.282013,0c22.195984,0.012009 40.165009,17.996002 40.175995,40.193008z"/>
  </g>
  <g id="svg_3"/>
  <g id="svg_4"/>
  <g id="svg_5"/>
  <g id="svg_6"/>
  <g id="svg_7"/>
  <g id="svg_8"/>
  <g id="svg_9"/>
  <g id="svg_10"/>
  <g id="svg_11"/>
  <g id="svg_12"/>
  <g id="svg_13"/>
  <g id="svg_14"/>
  <g id="svg_15"/>
  <g id="svg_16"/>
  <g id="svg_17"/>
 </g>
</svg>